<mxfile host="app.diagrams.net" modified="2020-07-16T15:25:08.067Z" agent="5.0 (Windows NT 10.0; Win64; x64) AppleWebKit/537.36 (KHTML, like Gecko) Chrome/83.0.4103.116 Safari/537.36 Edg/83.0.478.64" etag="7iD1a3HVovsOeba2U8bV" version="13.4.4" type="github">
  <diagram id="Yd7IUzVdy1ZeiNmpCw2D" name="Page-1">
    <mxGraphModel dx="1038" dy="580" grid="1" gridSize="10" guides="1" tooltips="1" connect="1" arrows="1" fold="1" page="1" pageScale="1" pageWidth="850" pageHeight="1100" math="0" shadow="0">
      <root>
        <mxCell id="0" />
        <mxCell id="1" parent="0" />
        <mxCell id="vvjxI7l9h6sRaTuRVvEj-10" value="" style="whiteSpace=wrap;html=1;aspect=fixed;" vertex="1" parent="1">
          <mxGeometry x="360" y="610.25" width="140" height="140" as="geometry" />
        </mxCell>
        <mxCell id="vvjxI7l9h6sRaTuRVvEj-1" value="&lt;font style=&quot;font-size: 30px&quot; color=&quot;#000099&quot;&gt;&lt;b&gt;RESTful APIs&lt;/b&gt;&lt;/font&gt;" style="text;html=1;strokeColor=none;fillColor=none;align=center;verticalAlign=middle;whiteSpace=wrap;rounded=0;" vertex="1" parent="1">
          <mxGeometry x="327.7" y="540" width="205" height="20" as="geometry" />
        </mxCell>
        <mxCell id="vvjxI7l9h6sRaTuRVvEj-2" value="Client" style="outlineConnect=0;fontColor=#232F3E;gradientColor=none;strokeColor=#232F3E;fillColor=#ffffff;dashed=0;verticalLabelPosition=bottom;verticalAlign=top;align=center;html=1;fontSize=12;fontStyle=0;aspect=fixed;shape=mxgraph.aws4.resourceIcon;resIcon=mxgraph.aws4.client;" vertex="1" parent="1">
          <mxGeometry x="130" y="633" width="94.5" height="94.5" as="geometry" />
        </mxCell>
        <mxCell id="vvjxI7l9h6sRaTuRVvEj-6" value="Cloud Run" style="html=1;fillColor=#5184F3;strokeColor=none;verticalAlign=top;labelPosition=center;verticalLabelPosition=bottom;align=center;spacingTop=-6;fontSize=11;fontStyle=1;fontColor=#999999;shape=mxgraph.gcp2.hexIcon;prIcon=cloud_run" vertex="1" parent="1">
          <mxGeometry x="590" y="617.75" width="141.02" height="125" as="geometry" />
        </mxCell>
        <mxCell id="vvjxI7l9h6sRaTuRVvEj-11" value="&lt;font style=&quot;font-size: 15px&quot; color=&quot;#006600&quot;&gt;&lt;b&gt;[POST]&lt;/b&gt;&lt;/font&gt;" style="text;html=1;strokeColor=none;fillColor=none;align=center;verticalAlign=middle;whiteSpace=wrap;rounded=0;" vertex="1" parent="1">
          <mxGeometry x="405.2" y="613" width="50" height="20" as="geometry" />
        </mxCell>
        <mxCell id="vvjxI7l9h6sRaTuRVvEj-12" value="&lt;span style=&quot;color: rgba(0 , 0 , 0 , 0.84) ; text-align: left ; background-color: rgb(255 , 255 , 255)&quot;&gt;&lt;font style=&quot;font-size: 12px&quot;&gt;multipart/form-data&lt;/font&gt;&lt;/span&gt;" style="text;html=1;strokeColor=none;fillColor=none;align=center;verticalAlign=middle;whiteSpace=wrap;rounded=0;" vertex="1" parent="1">
          <mxGeometry x="377.5" y="640" width="105" height="20" as="geometry" />
        </mxCell>
        <mxCell id="vvjxI7l9h6sRaTuRVvEj-13" value="" style="shape=image;html=1;verticalAlign=top;verticalLabelPosition=bottom;labelBackgroundColor=#ffffff;imageAspect=0;aspect=fixed;image=https://cdn0.iconfinder.com/data/icons/google-material-design-3-0/48/ic_http_48px-128.png" vertex="1" parent="1">
          <mxGeometry x="360" y="580" width="44" height="44" as="geometry" />
        </mxCell>
        <mxCell id="vvjxI7l9h6sRaTuRVvEj-15" value="" style="endArrow=none;html=1;exitX=0;exitY=0.5;exitDx=0;exitDy=0;entryX=1;entryY=0.5;entryDx=0;entryDy=0;" edge="1" parent="1" source="vvjxI7l9h6sRaTuRVvEj-10" target="vvjxI7l9h6sRaTuRVvEj-10">
          <mxGeometry width="50" height="50" relative="1" as="geometry">
            <mxPoint x="390" y="705.25" as="sourcePoint" />
            <mxPoint x="440" y="655.25" as="targetPoint" />
          </mxGeometry>
        </mxCell>
        <mxCell id="vvjxI7l9h6sRaTuRVvEj-16" value="&lt;div style=&quot;text-align: left&quot;&gt;&lt;span&gt;&lt;font color=&quot;rgba(0, 0, 0, 0.83921568627451)&quot;&gt;Response&lt;/font&gt;&lt;/span&gt;&lt;/div&gt;" style="text;html=1;strokeColor=none;fillColor=none;align=center;verticalAlign=middle;whiteSpace=wrap;rounded=0;" vertex="1" parent="1">
          <mxGeometry x="396.49" y="690" width="67" height="20" as="geometry" />
        </mxCell>
        <mxCell id="vvjxI7l9h6sRaTuRVvEj-17" value="" style="dashed=0;outlineConnect=0;html=1;align=center;labelPosition=center;verticalLabelPosition=bottom;verticalAlign=top;shape=mxgraph.weblogos.json_2" vertex="1" parent="1">
          <mxGeometry x="414.04" y="727.5" width="31.91" height="10" as="geometry" />
        </mxCell>
        <mxCell id="vvjxI7l9h6sRaTuRVvEj-20" value="" style="endArrow=classic;html=1;entryX=0;entryY=0.25;entryDx=0;entryDy=0;" edge="1" parent="1" target="vvjxI7l9h6sRaTuRVvEj-10">
          <mxGeometry width="50" height="50" relative="1" as="geometry">
            <mxPoint x="230" y="660" as="sourcePoint" />
            <mxPoint x="310" y="617.75" as="targetPoint" />
          </mxGeometry>
        </mxCell>
        <mxCell id="vvjxI7l9h6sRaTuRVvEj-21" value="" style="endArrow=classic;html=1;entryX=0.25;entryY=0.33;entryDx=0;entryDy=0;entryPerimeter=0;exitX=1;exitY=0.25;exitDx=0;exitDy=0;" edge="1" parent="1" source="vvjxI7l9h6sRaTuRVvEj-10" target="vvjxI7l9h6sRaTuRVvEj-6">
          <mxGeometry width="50" height="50" relative="1" as="geometry">
            <mxPoint x="482.5" y="632" as="sourcePoint" />
            <mxPoint x="662.5" y="572" as="targetPoint" />
          </mxGeometry>
        </mxCell>
        <mxCell id="vvjxI7l9h6sRaTuRVvEj-22" value="" style="endArrow=classic;html=1;exitX=0.25;exitY=0.67;exitDx=0;exitDy=0;exitPerimeter=0;entryX=1;entryY=0.75;entryDx=0;entryDy=0;" edge="1" parent="1" source="vvjxI7l9h6sRaTuRVvEj-6" target="vvjxI7l9h6sRaTuRVvEj-10">
          <mxGeometry width="50" height="50" relative="1" as="geometry">
            <mxPoint x="620" y="697.5" as="sourcePoint" />
            <mxPoint x="550" y="727.5" as="targetPoint" />
          </mxGeometry>
        </mxCell>
        <mxCell id="vvjxI7l9h6sRaTuRVvEj-23" value="" style="endArrow=classic;html=1;exitX=0;exitY=0.75;exitDx=0;exitDy=0;" edge="1" parent="1" source="vvjxI7l9h6sRaTuRVvEj-10">
          <mxGeometry width="50" height="50" relative="1" as="geometry">
            <mxPoint x="370" y="720" as="sourcePoint" />
            <mxPoint x="230" y="700" as="targetPoint" />
          </mxGeometry>
        </mxCell>
        <mxCell id="vvjxI7l9h6sRaTuRVvEj-24" value="" style="shape=image;html=1;verticalAlign=top;verticalLabelPosition=bottom;labelBackgroundColor=#ffffff;imageAspect=0;aspect=fixed;image=https://cdn1.iconfinder.com/data/icons/hawcons/32/700093-icon-58-file-wav-128.png" vertex="1" parent="1">
          <mxGeometry x="415" y="654" width="30" height="30" as="geometry" />
        </mxCell>
      </root>
    </mxGraphModel>
  </diagram>
</mxfile>
